<mxfile host="app.diagrams.net" modified="2023-11-17T11:55:03.118Z" agent="Mozilla/5.0 (Macintosh; Intel Mac OS X 10_15_7) AppleWebKit/605.1.15 (KHTML, like Gecko) Version/17.1 Safari/605.1.15" etag="w8H-225zc-GFDkPyu8rE" version="22.1.2" type="device">
  <diagram name="PÃ¡gina-1" id="-BigBgq8LhHNM7Cr0aPP">
    <mxGraphModel dx="750" dy="370" grid="1" gridSize="10" guides="1" tooltips="1" connect="1" arrows="1" fold="1" page="1" pageScale="1" pageWidth="827" pageHeight="1169" background="#ffffff" math="0" shadow="0">
      <root>
        <mxCell id="0" />
        <mxCell id="1" parent="0" />
        <mxCell id="SlP-TSi3xt0uaVFerMeo-3" value="Actor" style="shape=umlActor;verticalLabelPosition=bottom;verticalAlign=top;html=1;outlineConnect=0;" parent="1" vertex="1">
          <mxGeometry x="110" y="225" width="30" height="60" as="geometry" />
        </mxCell>
        <mxCell id="SlP-TSi3xt0uaVFerMeo-13" value="&lt;b&gt;&lt;font style=&quot;font-size: 26px;&quot;&gt;Portfolio&lt;/font&gt;&lt;/b&gt;" style="rounded=1;whiteSpace=wrap;html=1;fillColor=#dae8fc;strokeColor=#6c8ebf;" parent="1" vertex="1">
          <mxGeometry x="330" y="150" width="110" height="210" as="geometry" />
        </mxCell>
        <mxCell id="SlP-TSi3xt0uaVFerMeo-14" value="&lt;span style=&quot;font-size: 26px;&quot;&gt;&lt;b&gt;Broker&lt;/b&gt;&lt;/span&gt;" style="rounded=1;whiteSpace=wrap;html=1;fillColor=#f8cecc;strokeColor=#b85450;" parent="1" vertex="1">
          <mxGeometry x="650" y="170" width="100" height="150" as="geometry" />
        </mxCell>
        <mxCell id="SlP-TSi3xt0uaVFerMeo-15" value="&amp;lt;CREA&amp;gt;" style="endArrow=classic;html=1;rounded=0;" parent="1" source="K5J7y3DNPG-U4RtveCts-4" target="SlP-TSi3xt0uaVFerMeo-13" edge="1">
          <mxGeometry width="50" height="50" relative="1" as="geometry">
            <mxPoint x="180" y="207.9310344827586" as="sourcePoint" />
            <mxPoint x="440" y="290" as="targetPoint" />
            <Array as="points" />
          </mxGeometry>
        </mxCell>
        <mxCell id="SlP-TSi3xt0uaVFerMeo-20" value="" style="endArrow=classic;html=1;rounded=0;" parent="1" source="SlP-TSi3xt0uaVFerMeo-13" target="SlP-TSi3xt0uaVFerMeo-14" edge="1">
          <mxGeometry width="50" height="50" relative="1" as="geometry">
            <mxPoint x="390" y="340" as="sourcePoint" />
            <mxPoint x="440" y="290" as="targetPoint" />
            <Array as="points">
              <mxPoint x="570" y="140" />
            </Array>
          </mxGeometry>
        </mxCell>
        <mxCell id="SlP-TSi3xt0uaVFerMeo-21" value="" style="endArrow=classic;html=1;rounded=0;" parent="1" source="SlP-TSi3xt0uaVFerMeo-13" target="SlP-TSi3xt0uaVFerMeo-14" edge="1">
          <mxGeometry width="50" height="50" relative="1" as="geometry">
            <mxPoint x="480" y="223" as="sourcePoint" />
            <mxPoint x="620" y="223" as="targetPoint" />
            <Array as="points">
              <mxPoint x="550" y="180" />
            </Array>
          </mxGeometry>
        </mxCell>
        <mxCell id="SlP-TSi3xt0uaVFerMeo-22" value="" style="endArrow=classic;html=1;rounded=0;exitX=0.993;exitY=0.41;exitDx=0;exitDy=0;exitPerimeter=0;" parent="1" source="SlP-TSi3xt0uaVFerMeo-13" target="SlP-TSi3xt0uaVFerMeo-14" edge="1">
          <mxGeometry width="50" height="50" relative="1" as="geometry">
            <mxPoint x="490" y="233" as="sourcePoint" />
            <mxPoint x="630" y="233" as="targetPoint" />
            <Array as="points">
              <mxPoint x="560" y="190" />
            </Array>
          </mxGeometry>
        </mxCell>
        <mxCell id="SlP-TSi3xt0uaVFerMeo-23" value="" style="endArrow=classic;html=1;rounded=0;exitX=1;exitY=0.5;exitDx=0;exitDy=0;" parent="1" source="SlP-TSi3xt0uaVFerMeo-13" target="SlP-TSi3xt0uaVFerMeo-14" edge="1">
          <mxGeometry width="50" height="50" relative="1" as="geometry">
            <mxPoint x="500" y="243" as="sourcePoint" />
            <mxPoint x="640" y="243" as="targetPoint" />
            <Array as="points">
              <mxPoint x="570" y="200" />
            </Array>
          </mxGeometry>
        </mxCell>
        <mxCell id="SlP-TSi3xt0uaVFerMeo-24" value="" style="endArrow=classic;html=1;rounded=0;exitX=0.986;exitY=0.633;exitDx=0;exitDy=0;exitPerimeter=0;entryX=0;entryY=0.5;entryDx=0;entryDy=0;" parent="1" source="SlP-TSi3xt0uaVFerMeo-13" target="SlP-TSi3xt0uaVFerMeo-14" edge="1">
          <mxGeometry width="50" height="50" relative="1" as="geometry">
            <mxPoint x="510" y="253" as="sourcePoint" />
            <mxPoint x="650" y="253" as="targetPoint" />
            <Array as="points">
              <mxPoint x="570" y="230" />
            </Array>
          </mxGeometry>
        </mxCell>
        <mxCell id="SlP-TSi3xt0uaVFerMeo-25" value="" style="endArrow=classic;html=1;rounded=0;exitX=1;exitY=0.667;exitDx=0;exitDy=0;exitPerimeter=0;" parent="1" source="SlP-TSi3xt0uaVFerMeo-13" target="SlP-TSi3xt0uaVFerMeo-14" edge="1">
          <mxGeometry width="50" height="50" relative="1" as="geometry">
            <mxPoint x="520" y="263" as="sourcePoint" />
            <mxPoint x="660" y="263" as="targetPoint" />
            <Array as="points">
              <mxPoint x="570" y="260" />
            </Array>
          </mxGeometry>
        </mxCell>
        <mxCell id="SlP-TSi3xt0uaVFerMeo-26" value="" style="endArrow=classic;html=1;rounded=0;exitX=0.986;exitY=0.69;exitDx=0;exitDy=0;exitPerimeter=0;" parent="1" source="SlP-TSi3xt0uaVFerMeo-13" target="SlP-TSi3xt0uaVFerMeo-14" edge="1">
          <mxGeometry width="50" height="50" relative="1" as="geometry">
            <mxPoint x="530" y="273" as="sourcePoint" />
            <mxPoint x="670" y="273" as="targetPoint" />
            <Array as="points">
              <mxPoint x="560" y="273" />
            </Array>
          </mxGeometry>
        </mxCell>
        <mxCell id="SlP-TSi3xt0uaVFerMeo-27" value="" style="endArrow=classic;html=1;rounded=0;exitX=1;exitY=0.75;exitDx=0;exitDy=0;" parent="1" source="SlP-TSi3xt0uaVFerMeo-13" target="SlP-TSi3xt0uaVFerMeo-14" edge="1">
          <mxGeometry width="50" height="50" relative="1" as="geometry">
            <mxPoint x="540" y="283" as="sourcePoint" />
            <mxPoint x="680" y="283" as="targetPoint" />
            <Array as="points" />
          </mxGeometry>
        </mxCell>
        <mxCell id="SlP-TSi3xt0uaVFerMeo-28" value="" style="endArrow=classic;html=1;rounded=0;exitX=1;exitY=0.833;exitDx=0;exitDy=0;exitPerimeter=0;" parent="1" source="SlP-TSi3xt0uaVFerMeo-13" target="SlP-TSi3xt0uaVFerMeo-14" edge="1">
          <mxGeometry width="50" height="50" relative="1" as="geometry">
            <mxPoint x="550" y="293" as="sourcePoint" />
            <mxPoint x="690" y="293" as="targetPoint" />
            <Array as="points">
              <mxPoint x="550" y="340" />
            </Array>
          </mxGeometry>
        </mxCell>
        <mxCell id="K5J7y3DNPG-U4RtveCts-3" value="Actor" style="shape=umlActor;verticalLabelPosition=bottom;verticalAlign=top;html=1;outlineConnect=0;" vertex="1" parent="1">
          <mxGeometry x="110" y="350" width="30" height="60" as="geometry" />
        </mxCell>
        <mxCell id="K5J7y3DNPG-U4RtveCts-4" value="Actor" style="shape=umlActor;verticalLabelPosition=bottom;verticalAlign=top;html=1;outlineConnect=0;" vertex="1" parent="1">
          <mxGeometry x="110" y="110" width="30" height="60" as="geometry" />
        </mxCell>
        <mxCell id="K5J7y3DNPG-U4RtveCts-5" value="&amp;lt;CREA&amp;gt;" style="endArrow=classic;html=1;rounded=0;exitX=0.5;exitY=0.5;exitDx=0;exitDy=0;exitPerimeter=0;entryX=-0.018;entryY=0.538;entryDx=0;entryDy=0;entryPerimeter=0;" edge="1" parent="1" target="SlP-TSi3xt0uaVFerMeo-13">
          <mxGeometry width="50" height="50" relative="1" as="geometry">
            <mxPoint x="135" y="265" as="sourcePoint" />
            <mxPoint x="340" y="265" as="targetPoint" />
            <Array as="points" />
          </mxGeometry>
        </mxCell>
        <mxCell id="K5J7y3DNPG-U4RtveCts-6" value="&amp;lt;CREA&amp;gt;" style="endArrow=classic;html=1;rounded=0;entryX=0.018;entryY=0.662;entryDx=0;entryDy=0;entryPerimeter=0;" edge="1" parent="1" source="K5J7y3DNPG-U4RtveCts-3" target="SlP-TSi3xt0uaVFerMeo-13">
          <mxGeometry width="50" height="50" relative="1" as="geometry">
            <mxPoint x="145" y="275" as="sourcePoint" />
            <mxPoint x="350" y="275" as="targetPoint" />
            <Array as="points" />
          </mxGeometry>
        </mxCell>
        <mxCell id="K5J7y3DNPG-U4RtveCts-11" value="Los clientes" style="swimlane;whiteSpace=wrap;html=1;" vertex="1" parent="1">
          <mxGeometry x="40" y="60" width="160" height="400" as="geometry" />
        </mxCell>
        <mxCell id="K5J7y3DNPG-U4RtveCts-12" value="Nuestro Microservicio" style="swimlane;whiteSpace=wrap;html=1;" vertex="1" parent="1">
          <mxGeometry x="285" y="60" width="195" height="400" as="geometry" />
        </mxCell>
        <mxCell id="K5J7y3DNPG-U4RtveCts-13" value="El thirdParty" style="swimlane;whiteSpace=wrap;html=1;" vertex="1" parent="1">
          <mxGeometry x="590" y="60" width="200" height="400" as="geometry" />
        </mxCell>
      </root>
    </mxGraphModel>
  </diagram>
</mxfile>
